<mxfile host="www.draw.io" modified="2019-12-11T06:05:40.988Z" agent="Mozilla/5.0 (Windows NT 10.0; Win64; x64) AppleWebKit/537.36 (KHTML, like Gecko) Chrome/78.0.3904.108 Safari/537.36" etag="FFzMNSvWUpc9NCgZJptt" version="12.3.9" type="github" pages="1">
  <diagram id="dWZ77ylR-XDzzBfGFnIf" name="数据归档架构">
    <mxGraphModel dx="868" dy="450" grid="1" gridSize="10" guides="1" tooltips="1" connect="1" arrows="1" fold="1" page="1" pageScale="1" pageWidth="827" pageHeight="1169" math="0" shadow="0">
      <root>
        <mxCell id="0"/>
        <mxCell id="1" parent="0"/>
        <mxCell id="3u3mhzlYv0ol3ZOvZQSq-1" value="Dorcst前端" style="rounded=1;whiteSpace=wrap;html=1;fillColor=#f5f5f5;strokeColor=#666666;fontColor=#333333;" parent="1" vertex="1">
          <mxGeometry x="290" y="80" width="240" height="50" as="geometry"/>
        </mxCell>
        <mxCell id="3u3mhzlYv0ol3ZOvZQSq-2" value="Dorcst后端接口服务" style="rounded=1;whiteSpace=wrap;html=1;dashed=1;fillColor=#f5f5f5;strokeColor=#666666;fontColor=#333333;" parent="1" vertex="1">
          <mxGeometry x="80" y="180" width="200" height="50" as="geometry"/>
        </mxCell>
        <mxCell id="3u3mhzlYv0ol3ZOvZQSq-3" value="搜索服务" style="rounded=1;whiteSpace=wrap;html=1;fillColor=#dae8fc;strokeColor=#6c8ebf;" parent="1" vertex="1">
          <mxGeometry x="320" y="180" width="180" height="50" as="geometry"/>
        </mxCell>
        <mxCell id="3u3mhzlYv0ol3ZOvZQSq-6" value="离线数据服务" style="rounded=1;whiteSpace=wrap;html=1;fillColor=#f8cecc;strokeColor=#b85450;" parent="1" vertex="1">
          <mxGeometry x="530" y="180" width="170" height="50" as="geometry"/>
        </mxCell>
        <mxCell id="3u3mhzlYv0ol3ZOvZQSq-7" value="dorcst数据库" style="shape=cylinder;whiteSpace=wrap;html=1;boundedLbl=1;backgroundOutline=1;dashed=1;" parent="1" vertex="1">
          <mxGeometry x="83" y="300" width="180" height="80" as="geometry"/>
        </mxCell>
        <mxCell id="3u3mhzlYv0ol3ZOvZQSq-8" value="ES" style="shape=cylinder;whiteSpace=wrap;html=1;boundedLbl=1;backgroundOutline=1;" parent="1" vertex="1">
          <mxGeometry x="318" y="300" width="177" height="80" as="geometry"/>
        </mxCell>
        <mxCell id="3u3mhzlYv0ol3ZOvZQSq-9" value="MongoDB" style="shape=cylinder;whiteSpace=wrap;html=1;boundedLbl=1;backgroundOutline=1;" parent="1" vertex="1">
          <mxGeometry x="530" y="300" width="177" height="80" as="geometry"/>
        </mxCell>
        <mxCell id="3u3mhzlYv0ol3ZOvZQSq-10" value="数据同步服务" style="rounded=1;whiteSpace=wrap;html=1;fillColor=#e1d5e7;strokeColor=#9673a6;" parent="1" vertex="1">
          <mxGeometry x="83" y="450" width="627" height="60" as="geometry"/>
        </mxCell>
        <mxCell id="3u3mhzlYv0ol3ZOvZQSq-11" value="" style="shape=flexArrow;endArrow=classic;html=1;entryX=0.147;entryY=-0.033;entryDx=0;entryDy=0;entryPerimeter=0;" parent="1" target="3u3mhzlYv0ol3ZOvZQSq-10" edge="1">
          <mxGeometry width="50" height="50" relative="1" as="geometry">
            <mxPoint x="175" y="390" as="sourcePoint"/>
            <mxPoint x="170" y="445" as="targetPoint"/>
            <Array as="points">
              <mxPoint x="175" y="420"/>
            </Array>
          </mxGeometry>
        </mxCell>
        <mxCell id="3u3mhzlYv0ol3ZOvZQSq-12" value="" style="shape=flexArrow;endArrow=classic;html=1;entryX=0.469;entryY=1.025;entryDx=0;entryDy=0;entryPerimeter=0;" parent="1" edge="1">
          <mxGeometry width="50" height="50" relative="1" as="geometry">
            <mxPoint x="413" y="442" as="sourcePoint"/>
            <mxPoint x="413.0129999999999" y="388" as="targetPoint"/>
          </mxGeometry>
        </mxCell>
        <mxCell id="3u3mhzlYv0ol3ZOvZQSq-13" value="" style="shape=flexArrow;endArrow=classic;html=1;entryX=0.469;entryY=1.025;entryDx=0;entryDy=0;entryPerimeter=0;" parent="1" edge="1">
          <mxGeometry width="50" height="50" relative="1" as="geometry">
            <mxPoint x="618" y="444" as="sourcePoint"/>
            <mxPoint x="618.0129999999999" y="390" as="targetPoint"/>
          </mxGeometry>
        </mxCell>
        <mxCell id="3u3mhzlYv0ol3ZOvZQSq-14" value="" style="shape=flexArrow;endArrow=classic;html=1;entryX=0.469;entryY=1.025;entryDx=0;entryDy=0;entryPerimeter=0;" parent="1" edge="1">
          <mxGeometry width="50" height="50" relative="1" as="geometry">
            <mxPoint x="172.5" y="294" as="sourcePoint"/>
            <mxPoint x="172.51299999999992" y="240" as="targetPoint"/>
          </mxGeometry>
        </mxCell>
        <mxCell id="3u3mhzlYv0ol3ZOvZQSq-15" value="" style="shape=flexArrow;endArrow=classic;html=1;entryX=0.469;entryY=1.025;entryDx=0;entryDy=0;entryPerimeter=0;" parent="1" edge="1">
          <mxGeometry width="50" height="50" relative="1" as="geometry">
            <mxPoint x="413" y="292" as="sourcePoint"/>
            <mxPoint x="413.0129999999999" y="238" as="targetPoint"/>
          </mxGeometry>
        </mxCell>
        <mxCell id="3u3mhzlYv0ol3ZOvZQSq-16" value="" style="shape=flexArrow;endArrow=classic;html=1;entryX=0.469;entryY=1.025;entryDx=0;entryDy=0;entryPerimeter=0;" parent="1" edge="1">
          <mxGeometry width="50" height="50" relative="1" as="geometry">
            <mxPoint x="618" y="292" as="sourcePoint"/>
            <mxPoint x="618.0129999999999" y="238" as="targetPoint"/>
          </mxGeometry>
        </mxCell>
        <mxCell id="3u3mhzlYv0ol3ZOvZQSq-17" value="" style="endArrow=classic;html=1;exitX=0.5;exitY=0;exitDx=0;exitDy=0;entryX=0.5;entryY=1;entryDx=0;entryDy=0;" parent="1" source="3u3mhzlYv0ol3ZOvZQSq-2" target="3u3mhzlYv0ol3ZOvZQSq-1" edge="1">
          <mxGeometry width="50" height="50" relative="1" as="geometry">
            <mxPoint x="370" y="180" as="sourcePoint"/>
            <mxPoint x="410" y="140" as="targetPoint"/>
          </mxGeometry>
        </mxCell>
        <mxCell id="3u3mhzlYv0ol3ZOvZQSq-18" value="" style="endArrow=classic;html=1;exitX=0.5;exitY=0;exitDx=0;exitDy=0;entryX=0.5;entryY=1;entryDx=0;entryDy=0;" parent="1" source="3u3mhzlYv0ol3ZOvZQSq-3" target="3u3mhzlYv0ol3ZOvZQSq-1" edge="1">
          <mxGeometry width="50" height="50" relative="1" as="geometry">
            <mxPoint x="190" y="190" as="sourcePoint"/>
            <mxPoint x="400" y="130" as="targetPoint"/>
          </mxGeometry>
        </mxCell>
        <mxCell id="3u3mhzlYv0ol3ZOvZQSq-19" value="" style="endArrow=classic;html=1;exitX=0.547;exitY=-0.04;exitDx=0;exitDy=0;entryX=0.5;entryY=1;entryDx=0;entryDy=0;exitPerimeter=0;" parent="1" source="3u3mhzlYv0ol3ZOvZQSq-6" target="3u3mhzlYv0ol3ZOvZQSq-1" edge="1">
          <mxGeometry width="50" height="50" relative="1" as="geometry">
            <mxPoint x="420" y="190" as="sourcePoint"/>
            <mxPoint x="420" y="140" as="targetPoint"/>
          </mxGeometry>
        </mxCell>
        <mxCell id="PC9tZh00QDQSEqSexuSu-1" value="病历/医嘱等数据" style="text;html=1;strokeColor=none;fillColor=none;align=center;verticalAlign=middle;whiteSpace=wrap;rounded=0;" vertex="1" parent="1">
          <mxGeometry x="311" y="414" width="90" height="20" as="geometry"/>
        </mxCell>
        <mxCell id="PC9tZh00QDQSEqSexuSu-2" value="离院病人数据" style="text;html=1;strokeColor=none;fillColor=none;align=center;verticalAlign=middle;whiteSpace=wrap;rounded=0;" vertex="1" parent="1">
          <mxGeometry x="522" y="414" width="90" height="20" as="geometry"/>
        </mxCell>
      </root>
    </mxGraphModel>
  </diagram>
</mxfile>
